<?xml version="1.0" standalone="no"?>
<!DOCTYPE svg PUBLIC "-//W3C//DTD SVG 20010904//EN"
 "http://www.w3.org/TR/2001/REC-SVG-20010904/DTD/svg10.dtd">
<svg version="1.0" xmlns="http://www.w3.org/2000/svg"
 width="558.000000pt" height="558.000000pt" viewBox="0 0 558.000000 558.000000"
 preserveAspectRatio="xMidYMid meet">
<metadata>
Created by potrace 1.14, written by Peter Selinger 2001-2017
</metadata>
<g transform="translate(0.000000,558.000000) scale(0.100000,-0.100000)"
fill="#000000" stroke="none">
<path d="M2753 3900 c-11 -5 -34 -11 -50 -13 -71 -10 -169 -64 -241 -133 -13
-13 -38 -26 -55 -30 -35 -7 -82 -31 -111 -54 -47 -39 -124 -118 -141 -143 -16
-24 -95 -76 -95 -62 0 2 -22 -8 -49 -23 -73 -40 -244 -210 -286 -283 -37 -66
-86 -164 -110 -224 -16 -38 -33 -75 -38 -82 -5 -7 -6 -17 -2 -23 3 -5 2 -10
-3 -10 -5 0 -15 -20 -22 -45 -7 -25 -16 -45 -20 -45 -4 0 -7 -6 -7 -12 0 -7
-19 -68 -42 -135 -22 -68 -41 -129 -41 -138 0 -8 -3 -15 -7 -15 -5 0 -9 -10
-9 -22 -1 -13 -5 -36 -8 -53 -14 -71 -14 -208 0 -241 17 -41 17 -47 2 -38 -8
5 -7 0 2 -11 25 -32 54 -61 45 -45 -8 13 -7 13 8 1 10 -8 20 -11 23 -8 3 3 17
1 31 -4 22 -8 24 -7 19 7 -5 14 -4 15 8 5 11 -10 20 -10 37 -1 18 10 25 9 45
-11 13 -13 25 -35 28 -49 2 -14 5 -27 6 -30 1 -3 2 -17 2 -32 1 -16 5 -28 10
-28 5 0 6 -5 2 -12 -4 -6 -9 -32 -10 -57 -4 -72 -17 -107 -34 -96 -11 7 -29
-77 -19 -89 4 -5 3 -18 -2 -29 -8 -14 -8 -18 0 -13 6 4 11 0 11 -8 0 -9 5 -16
12 -16 6 0 9 -3 6 -6 -4 -3 -16 -1 -27 5 -17 10 -20 9 -15 -4 4 -8 10 -15 15
-15 5 0 9 -9 9 -20 0 -11 4 -20 8 -20 5 0 14 -12 21 -27 11 -23 10 -25 -3 -13
-15 12 -21 7 -17 -14 1 -5 -5 -3 -14 4 -9 7 -15 9 -14 4 4 -22 -3 -31 -23 -30
-13 1 -26 6 -30 11 -4 6 -8 0 -8 -13 0 -13 4 -21 9 -17 5 3 16 -1 24 -9 8 -8
17 -12 21 -9 3 4 6 1 6 -6 0 -8 7 -11 15 -7 12 4 14 2 7 -11 -9 -15 -26 -22
-59 -25 -14 -2 -4 -29 16 -45 12 -9 12 -12 3 -13 -7 0 -11 -4 -8 -9 3 -4 28
-7 56 -7 52 2 62 -5 33 -24 -17 -11 -17 -11 0 -6 10 3 17 0 17 -7 0 -8 4 -6
10 3 6 9 10 10 10 3 0 -6 -5 -15 -11 -19 -6 -3 -7 -9 -3 -13 15 -11 40 -45 27
-38 -8 5 -7 -2 2 -20 8 -15 15 -34 15 -42 0 -8 3 -12 6 -8 3 3 14 -1 23 -10
19 -16 19 -37 1 -128 -13 -62 -16 -78 -25 -135 -4 -25 -9 -54 -11 -65 -2 -11
-7 -43 -9 -71 -3 -28 -8 -62 -11 -75 -4 -13 -8 -153 -10 -311 l-4 -288 85 0
c89 0 90 0 99 50 3 14 5 26 7 28 3 4 19 94 25 137 0 6 4 21 7 35 4 14 9 36 11
50 5 24 21 104 30 145 13 59 19 75 31 75 8 0 17 4 20 10 3 5 0 7 -8 4 -8 -3
-14 1 -14 10 0 11 5 13 18 6 9 -6 20 -15 22 -22 3 -8 6 -5 6 6 1 15 4 16 16 6
8 -7 15 -18 15 -26 0 -14 35 -28 49 -19 6 3 7 13 4 22 -4 11 -3 14 5 9 7 -4
12 -2 12 6 0 9 3 9 10 -2 5 -8 10 -10 10 -4 0 5 13 9 29 8 21 -1 28 3 27 15
-1 9 4 16 9 16 6 0 9 -3 8 -7 -2 -5 2 -8 7 -8 6 0 10 7 10 15 0 9 7 18 15 21
8 4 13 10 10 14 -3 5 -1 11 4 15 5 3 14 -3 20 -12 9 -16 10 -16 11 -1 0 9 5
18 10 20 6 2 12 13 13 25 0 12 5 19 9 17 4 -3 8 1 9 8 0 7 4 4 9 -7 7 -15 9
-10 9 23 1 26 -3 42 -11 42 -9 0 -9 3 -1 11 14 14 -2 73 -30 113 -13 19 -16
27 -6 22 7 -4 6 -1 -3 7 -10 8 -15 17 -11 20 3 4 0 13 -7 22 -7 8 -10 15 -7
15 3 0 -1 24 -8 53 -7 28 -13 60 -12 70 0 20 18 22 35 5 7 -7 12 -9 12 -5 0 4
13 1 30 -8 16 -8 31 -15 32 -15 3 1 9 0 108 -31 41 -12 80 -26 86 -31 6 -4 14
-5 17 -1 4 3 7 1 7 -6 0 -7 3 -10 8 -8 4 3 34 -1 67 -8 33 -6 79 -11 103 -11
23 1 42 -1 42 -4 0 -3 27 -6 60 -6 33 0 60 3 60 6 0 3 17 5 37 4 21 0 49 3 62
8 13 5 40 11 60 14 20 3 43 8 51 11 28 11 75 18 109 14 11 -1 10 -5 -4 -21
-10 -11 -14 -20 -9 -20 5 0 2 -5 -6 -10 -11 -7 -11 -10 -2 -10 7 0 11 -4 8 -9
-11 -17 -15 -180 -6 -186 6 -4 10 -15 10 -26 0 -19 19 -42 58 -68 11 -8 19
-17 17 -21 -2 -3 9 -20 25 -38 16 -19 30 -38 32 -44 4 -11 35 -13 82 -5 19 3
33 -1 44 -13 8 -10 21 -16 29 -13 8 3 20 -2 26 -11 9 -13 20 -16 40 -11 15 4
24 11 21 16 -3 5 2 9 11 9 9 0 14 4 11 9 -11 17 27 5 39 -13 18 -24 55 -29 56
-8 0 10 3 12 6 5 9 -25 23 -13 13 11 -8 22 -7 24 13 19 12 -3 30 -6 40 -6 9
-1 17 -8 17 -17 1 -30 33 46 35 83 2 43 9 54 27 40 25 -20 45 -11 42 16 -5 40
-9 55 -19 71 -5 8 -10 21 -11 27 -1 7 -9 20 -18 29 -9 8 -14 19 -12 22 4 8
-19 32 -31 33 -5 0 -17 2 -28 4 -11 3 -33 7 -50 10 -16 2 -31 9 -33 15 -2 5
-8 8 -13 4 -5 -3 -9 -1 -9 4 0 4 -8 17 -18 28 -26 29 -53 74 -45 74 5 0 0 5
-9 10 -10 6 -15 19 -13 30 2 11 -1 20 -6 20 -6 0 -1 13 10 29 11 15 18 31 14
35 -3 3 -1 6 6 6 7 0 9 5 6 10 -3 6 -1 10 6 10 7 0 9 3 6 7 -4 3 1 12 11 20
16 14 16 14 -2 9 -15 -5 -17 -4 -8 7 7 8 9 17 5 20 -3 4 -1 7 5 7 18 0 14 27
-5 34 -12 5 -14 9 -5 18 9 9 16 7 27 -8 12 -16 14 -16 9 -1 -4 10 -1 17 6 17
6 0 8 5 5 10 -4 6 -11 8 -16 5 -5 -3 -6 1 -2 10 3 10 8 12 12 7 10 -17 110 -6
132 14 10 9 19 13 19 8 0 -5 4 -4 8 2 4 6 21 18 37 27 19 10 24 16 13 17 -9 0
-20 -5 -24 -11 -3 -6 -21 -9 -39 -7 -25 3 -31 0 -27 -11 3 -9 1 -12 -6 -7 -7
4 -12 16 -12 26 0 23 -16 35 -26 19 -4 -8 -3 -9 4 -5 7 4 12 0 12 -10 0 -16
-1 -16 -20 1 -11 10 -20 20 -20 23 0 3 3 2 7 -1 3 -4 12 2 20 12 10 15 21 18
45 14 18 -3 35 -9 36 -14 2 -5 8 -7 13 -3 10 6 -14 34 -29 34 -5 0 -16 8 -23
18 -13 16 -13 16 5 2 18 -14 19 -13 13 2 -5 15 -4 16 13 5 11 -6 20 -16 20
-22 0 -5 4 -4 9 4 13 21 4 38 -28 51 -26 10 -27 14 -17 36 6 13 18 24 26 24 8
0 26 9 40 20 14 11 29 20 33 20 15 0 32 24 68 90 20 36 44 78 54 93 28 43 28
82 0 137 -14 28 -26 61 -27 75 -1 14 -5 25 -9 25 -4 0 -6 7 -5 17 2 9 -5 32
-15 52 -9 20 -20 53 -23 73 -3 20 -13 55 -22 77 -14 35 -14 44 -2 69 8 15 23
62 33 103 11 41 22 76 25 79 13 13 110 219 119 255 6 22 10 139 11 260 0 258
0 256 -14 271 -6 6 -23 26 -38 45 -15 19 -50 59 -78 89 -28 30 -65 75 -82 100
-18 25 -35 47 -40 48 -4 2 -8 8 -8 13 0 15 -78 94 -145 148 -106 85 -316 177
-445 195 -25 3 -56 9 -70 13 -38 10 -452 13 -477 3z m1057 -2460 c0 -5 -5 -10
-11 -10 -5 0 -7 5 -4 10 3 6 8 10 11 10 2 0 4 -4 4 -10z m-2188 -148 c8 -8 5
-9 -11 -5 -12 3 -24 9 -26 13 -8 12 23 6 37 -8z"/>
</g>
</svg>
